<svg width="32" height="27" viewBox="0 0 32 27" fill="none" xmlns="http://www.w3.org/2000/svg">
<path d="M26.2266 3.83155C26.2184 3.81546 26.2048 3.80286 26.1884 3.796C24.2822 2.90777 22.2707 2.27439 20.2041 1.91171C20.1853 1.90816 20.1659 1.91072 20.1486 1.91902C20.1314 1.92731 20.1171 1.94093 20.1079 1.95792C19.834 2.46283 19.5854 2.98146 19.3629 3.51183C17.1352 3.16838 14.8693 3.16838 12.6416 3.51183C12.4177 2.98011 12.1651 2.46136 11.8849 1.95792C11.8753 1.9413 11.8609 1.928 11.8438 1.91976C11.8266 1.91151 11.8074 1.90871 11.7887 1.91171C9.72185 2.27362 7.71017 2.90705 5.80426 3.79605C5.78795 3.80307 5.77418 3.81507 5.76486 3.83038C1.95341 9.61121 0.909311 15.2499 1.42151 20.8188C1.42295 20.8324 1.42708 20.8456 1.43365 20.8576C1.44022 20.8696 1.4491 20.8802 1.45976 20.8886C3.67913 22.5576 6.16153 23.8315 8.80101 24.656C8.8196 24.6617 8.83945 24.6614 8.85789 24.6553C8.87633 24.6492 8.89248 24.6374 8.90416 24.6217C9.47106 23.8383 9.97338 23.0087 10.406 22.1414C10.412 22.1295 10.4153 22.1165 10.416 22.1032C10.4166 22.0898 10.4144 22.0765 10.4096 22.0641C10.4048 22.0517 10.3974 22.0404 10.388 22.0311C10.3786 22.0218 10.3674 22.0146 10.3551 22.01C9.56294 21.7022 8.79608 21.3311 8.06166 20.9003C8.04832 20.8923 8.03712 20.8811 8.02904 20.8677C8.02096 20.8543 8.01625 20.8391 8.01534 20.8234C8.01443 20.8077 8.01733 20.7921 8.0238 20.7778C8.03026 20.7635 8.04009 20.7511 8.05241 20.7415C8.20695 20.6243 8.35881 20.5035 8.50786 20.3791C8.52093 20.3682 8.53675 20.3612 8.55354 20.3589C8.57032 20.3566 8.58741 20.3591 8.60286 20.3661C13.4143 22.5963 18.6234 22.5963 23.3779 20.3661C23.3934 20.3586 23.4106 20.3558 23.4276 20.3579C23.4447 20.36 23.4608 20.3669 23.4741 20.378C23.6233 20.503 23.7755 20.6242 23.9307 20.7415C23.9431 20.751 23.953 20.7633 23.9595 20.7775C23.9661 20.7918 23.9691 20.8074 23.9683 20.8231C23.9675 20.8388 23.9629 20.8541 23.9549 20.8675C23.947 20.881 23.9358 20.8922 23.9226 20.9003C23.1898 21.3348 22.4223 21.7056 21.6281 22.0088C21.6157 22.0136 21.6045 22.021 21.5952 22.0304C21.5858 22.0399 21.5786 22.0513 21.5739 22.0638C21.5691 22.0763 21.5671 22.0897 21.5678 22.1031C21.5685 22.1164 21.572 22.1295 21.5781 22.1414C22.0179 23.0039 22.5195 23.8324 23.0788 24.6203C23.0901 24.6365 23.1062 24.6486 23.1247 24.655C23.1432 24.6614 23.1632 24.6617 23.1819 24.6559C25.8261 23.8341 28.3129 22.5601 30.535 20.8886C30.5458 20.8806 30.5548 20.8703 30.5614 20.8585C30.568 20.8466 30.5721 20.8335 30.5733 20.82C31.1865 14.3818 29.5467 8.78927 26.2266 3.83155ZM11.1246 17.4279C9.67596 17.4279 8.48236 16.0778 8.48236 14.4197C8.48236 12.7616 9.65281 11.4114 11.1246 11.4114C12.6078 11.4114 13.7899 12.7733 13.7667 14.4196C13.7667 16.0778 12.5962 17.4279 11.1246 17.4279ZM20.8936 17.4279C19.445 17.4279 18.2514 16.0778 18.2514 14.4197C18.2514 12.7616 19.4219 11.4114 20.8936 11.4114C22.3769 11.4114 23.5589 12.7733 23.5358 14.4196C23.5358 16.0778 22.3769 17.4279 20.8936 17.4279Z" fill="#323256"/>
</svg>
