<svg width="26" height="26" viewBox="0 0 26 26" fill="none" xmlns="http://www.w3.org/2000/svg">
<g clip-path="url(#clip0_108_45)">
<path d="M24.0371 0.229492H2.21519C1.17331 0.229492 0.326599 1.05606 0.326599 2.07571V23.9873C0.326599 25.0069 1.17331 25.8349 2.21519 25.8349H24.0371C25.0811 25.8349 25.9313 25.0069 25.9313 23.9873V2.07571C25.9313 1.05606 25.0811 0.229492 24.0371 0.229492Z" fill="#007BB5"/>
<path d="M4.12072 9.82811H7.92221V22.0474H4.12072V9.82811ZM6.02251 3.75391C7.23736 3.75391 8.22364 4.74057 8.22364 5.95612C8.22364 7.17199 7.23735 8.15864 6.02251 8.15864C4.80282 8.15864 3.81927 7.172 3.81927 5.95612C3.81927 4.74057 4.80281 3.75391 6.02251 3.75391Z" fill="white"/>
<path d="M10.3046 9.8286H13.945V11.4991H13.9971C14.5034 10.5384 15.7426 9.52539 17.5902 9.52539C21.4354 9.52539 22.1461 12.0555 22.1461 15.3464V22.0479H18.3487V16.1056C18.3487 14.6886 18.3244 12.8657 16.3754 12.8657C14.3993 12.8657 14.0978 14.4101 14.0978 16.0042V22.0479H10.3046V9.8286Z" fill="white"/>
</g>
<defs>
<clipPath id="clip0_108_45">
<rect width="25.6054" height="25.6054" fill="white" transform="translate(0.326172 0.229492)"/>
</clipPath>
</defs>
</svg>
