<svg width="167" height="44" viewBox="0 0 167 44" fill="none" xmlns="http://www.w3.org/2000/svg">
<path d="M60.2063 33.9492V29.4492H48.6143L59.9543 14.0412V9.93722H41.9183V14.4372H53.2583L41.9183 29.8092V33.9492H60.2063ZM70.9114 34.3812C76.6714 34.3812 80.1274 30.1692 80.1274 25.2372C80.1274 20.3052 76.6714 16.1292 70.9114 16.1292C65.1874 16.1292 61.7314 20.3052 61.7314 25.2372C61.7314 30.1692 65.1874 34.3812 70.9114 34.3812ZM70.9114 30.3132C68.0674 30.3132 66.4834 27.9732 66.4834 25.2372C66.4834 22.5372 68.0674 20.1972 70.9114 20.1972C73.7914 20.1972 75.3754 22.5372 75.3754 25.2372C75.3754 27.9732 73.7914 30.3132 70.9114 30.3132ZM84.6909 14.6892C86.2029 14.6892 87.4269 13.4652 87.4269 11.9532C87.4269 10.4412 86.2029 9.25322 84.6909 9.25322C83.2149 9.25322 81.9909 10.4412 81.9909 11.9532C81.9909 13.4652 83.2149 14.6892 84.6909 14.6892ZM86.9949 33.9492V16.5612H82.4229V33.9492H86.9949ZM106.957 33.9492V9.93722H102.349V18.7932C100.981 16.9932 99.0369 16.1292 96.9849 16.1292C92.5569 16.1292 89.2809 19.5852 89.2809 25.2372C89.2809 31.0692 92.6289 34.3812 96.9849 34.3812C99.1089 34.3812 100.981 33.4452 102.349 31.7172V33.9492H106.957ZM98.4249 30.3132C95.7969 30.3132 93.9969 28.2612 93.9969 25.2372C93.9969 22.2492 95.7969 20.1972 98.4249 20.1972C99.9369 20.1972 101.593 21.0252 102.349 22.1772V28.3332C101.593 29.4852 99.9369 30.3132 98.4249 30.3132ZM115.579 33.9492V25.3812H121.699C126.883 25.3812 129.763 21.8532 129.763 17.6772C129.763 13.4652 126.919 9.93722 121.699 9.93722H110.467V33.9492H115.579ZM120.979 20.8812H115.579V14.4372H120.979C122.995 14.4372 124.543 15.6612 124.543 17.6772C124.543 19.6572 122.995 20.8812 120.979 20.8812ZM146.776 33.9492V22.7172C146.776 17.7132 143.14 16.1292 139.144 16.1292C136.408 16.1292 133.672 16.9572 131.548 18.8652L133.348 22.0692C134.788 20.7372 136.516 20.0172 138.352 20.0172C140.656 20.0172 142.168 21.1692 142.168 22.9332V25.1292C141.016 23.7612 139 23.0052 136.66 23.0052C133.888 23.0052 130.648 24.5172 130.648 28.6212C130.648 32.5092 133.888 34.3812 136.66 34.3812C138.928 34.3812 140.98 33.5532 142.168 32.1132V33.9492H146.776ZM138.496 31.2852C136.696 31.2852 135.22 30.3492 135.22 28.6932C135.22 27.0372 136.696 26.0652 138.496 26.0652C139.972 26.0652 141.412 26.6052 142.168 27.6132V29.7732C141.412 30.7812 139.972 31.2852 138.496 31.2852ZM149.567 40.7172C150.107 40.8972 151.295 41.0052 151.799 41.0052C154.787 40.9332 157.091 40.0692 158.387 36.7932L166.559 16.5612H161.663L157.091 28.6572L152.555 16.5612H147.659L154.715 34.1652L154.067 35.6772C153.635 36.6132 152.843 36.9372 151.655 36.9372C151.223 36.9372 150.611 36.8292 150.215 36.6492L149.567 40.7172Z" fill="#19191B"/>
<path fill-rule="evenodd" clip-rule="evenodd" d="M5.79081 8.14715V12.254C5.79081 12.486 5.9789 12.6741 6.21092 12.6741H16.5644L0.328125 28.9104H7.8839L24.1202 12.6741L24.1162 12.663C24.6555 12.1409 24.9907 11.4093 24.9907 10.5994C24.9907 9.09017 23.8268 7.85284 22.3476 7.73606L22.3444 7.72705H22.1184H6.21092C5.9789 7.72705 5.79081 7.91514 5.79081 8.14715Z" fill="#1111FF"/>
<path fill-rule="evenodd" clip-rule="evenodd" d="M25.9123 35.8143V31.7075C25.9123 31.4755 25.7242 31.2874 25.4922 31.2874H15.1387L31.375 15.0511H23.8192L7.58292 31.2874L7.58688 31.2984C7.04764 31.8206 6.71243 32.5522 6.71243 33.3621C6.71243 34.8713 7.87636 36.1086 9.35553 36.2254L9.35876 36.2344H9.58473H25.4922C25.7242 36.2344 25.9123 36.0463 25.9123 35.8143Z" fill="#1111FF"/>
</svg>
