<svg width="27" height="26" viewBox="0 0 27 26" fill="none" xmlns="http://www.w3.org/2000/svg">
<path d="M7.5843 23.1014C7.47646 23.1014 9.74257 13.8739 9.74257 13.8739C9.79779 13.6958 9.94261 13.5593 10.1239 13.515C10.3047 13.4691 10.4969 13.5238 10.6287 13.6556L14.3628 17.3898C14.4722 17.4992 14.5285 17.6502 14.5175 17.805C14.5066 17.9592 14.4295 18.1009 14.3055 18.1936L7.90416 22.9946C7.80986 23.066 7.69682 23.1014 7.5843 23.1014Z" fill="#7F7F7F"/>
<path d="M19.8496 24.1683C19.736 24.1683 19.623 24.1318 19.5297 24.0615L2.4636 11.2588C2.30888 11.1432 2.22917 10.9535 2.2547 10.7624C2.27971 10.5712 2.40629 10.4086 2.5855 10.3367L23.9233 1.80161C24.1051 1.72972 24.3125 1.76098 24.4625 1.88705C24.6131 2.01208 24.6829 2.20951 24.6443 2.40174L20.3726 23.7396C20.3366 23.9193 20.2111 24.0678 20.0397 24.1334C19.9782 24.1569 19.9136 24.1683 19.8496 24.1683Z" fill="#E6E6E6"/>
<path d="M7.58475 23.1016C7.5561 23.1016 7.52745 23.0995 7.4988 23.0948C7.24041 23.0526 7.05078 22.8296 7.05078 22.5681V14.5664C7.05078 14.3976 7.13101 14.2388 7.26645 14.1382L23.8033 1.86895C24.0299 1.70069 24.3466 1.7382 24.5284 1.9523C24.7102 2.16745 24.6936 2.48627 24.4909 2.68163L9.82393 16.7807L8.09006 22.7369C8.01661 22.9573 7.81084 23.1016 7.58475 23.1016Z" fill="#B3B3B3"/>
</svg>
